<?xml version="1.0" encoding="UTF-8" standalone="no"?>
<!-- Created with Inkscape (http://www.inkscape.org/) -->

<svg
   xmlns:dc="http://purl.org/dc/elements/1.1/"
   xmlns:cc="http://creativecommons.org/ns#"
   xmlns:rdf="http://www.w3.org/1999/02/22-rdf-syntax-ns#"
   xmlns:svg="http://www.w3.org/2000/svg"
   xmlns="http://www.w3.org/2000/svg"
   xmlns:sodipodi="http://sodipodi.sourceforge.net/DTD/sodipodi-0.dtd"
   xmlns:inkscape="http://www.inkscape.org/namespaces/inkscape"
   width="210mm"
   height="297mm"
   viewBox="0 0 210 297"
   version="1.1"
   id="svg8"
   sodipodi:docname="icono.svg"
   inkscape:version="0.92.4 (unknown)">
  <defs
     id="defs2" />
  <sodipodi:namedview
     id="base"
     pagecolor="#ffffff"
     bordercolor="#666666"
     borderopacity="1.0"
     inkscape:pageopacity="0.0"
     inkscape:pageshadow="2"
     inkscape:zoom="1.5317947"
     inkscape:cx="377.62867"
     inkscape:cy="600.93794"
     inkscape:document-units="mm"
     inkscape:current-layer="layer1"
     showgrid="false"
     inkscape:window-width="1920"
     inkscape:window-height="1019"
     inkscape:window-x="0"
     inkscape:window-y="0"
     inkscape:window-maximized="1" />
  <metadata
     id="metadata5">
    <rdf:RDF>
      <cc:Work
         rdf:about="">
        <dc:format>image/svg+xml</dc:format>
        <dc:type
           rdf:resource="http://purl.org/dc/dcmitype/StillImage" />
      </cc:Work>
    </rdf:RDF>
  </metadata>
  <g
     inkscape:label="Layer 1"
     inkscape:groupmode="layer"
     id="layer1">
    <g
       style="fill:#241c1c;fill-opacity:1;stroke:#ffff00;stroke-width:0;stroke-miterlimit:4;stroke-dasharray:none;stroke-opacity:0"
       id="g965"
       transform="matrix(7.4329107,0,0,7.4329107,-3.2028148,-990.43602)">
      <g
         id="g855"
         style="stroke:#ffd42a;stroke-opacity:1;stroke-width:0.08072208;stroke-miterlimit:4;stroke-dasharray:none;fill:#241c1c">
        <path
           d="m 8.9159963,150.47966 c 0.8290186,-0.32481 2.2452107,-0.74997 3.1247237,-0.69627 0.622414,0.038 1.157914,0.13132 1.616299,0.35265 0.501372,0.24208 0.850773,0.50913 1.095385,0.99679 0.331265,0.66041 0.104006,1.51292 -0.53212,2.0731 -0.492877,0.43407 -1.33664,0.70797 -2.215631,0.70797 -0.379672,0 -0.725523,-0.0379 -1.037586,-0.11369 -0.312074,-0.0724 -0.579915,-0.16709 -0.803567,-0.28422 C 9.9398586,153.39886 9.7240209,153.26794 9.5159865,153.12325 9.3131467,152.982 9.1051009,152.83903 8.8918492,152.69433 8.6838148,152.55309 8.4601738,152.42389 8.2209376,152.30676 7.9816901,152.18963 7.687831,152.09317 7.339349,152.01737 6.9960962,151.94497 6.6164237,151.90885 6.2003436,151.90885 v -0.93017 l 0.5851095,0.0103 c 0.3744778,0.007 0.7229366,0.0482 1.0453888,0.12402 0.3224749,0.0758 0.5955328,0.17226 0.8191738,0.28939 0.2288356,0.12058 0.4446733,0.24977 0.6475244,0.38757 0.2028398,0.14125 0.395279,0.2825 0.5773176,0.42375 0.1872223,0.14125 0.3744553,0.26872 0.5616993,0.3824 0.19244,0.11369 0.408289,0.20671 0.647525,0.27906 0.244442,0.0724 0.505885,0.11384 0.764789,0.13409 0.262468,0.0205 0.40333,0.0417 0.602732,0.0191 0.237313,-0.0269 0.475866,-0.0835 0.687531,-0.18183 0.202631,-0.0942 0.397344,-0.21885 0.534871,-0.38035 0.148406,-0.17428 0.279375,-0.38535 0.285998,-0.6032 0.0016,-0.0526 -0.0039,-0.10549 -0.01517,-0.15784 -0.0113,-0.0523 -0.02843,-0.10419 -0.05015,-0.15477 -0.01086,-0.0253 -0.02287,-0.0503 -0.03587,-0.0748 -0.013,-0.0246 -0.027,-0.0487 -0.04183,-0.0724 -0.02967,-0.0473 -0.06269,-0.0926 -0.09783,-0.13521 -0.124655,-0.15101 -0.315753,-0.2556 -0.503885,-0.34146 -0.162457,-0.0741 -0.307048,-0.13332 -0.469799,-0.18012 -0.162752,-0.0468 -0.343664,-0.0812 -0.578766,-0.10585 -0.693344,-0.0726 -1.953632,0.14531 -3.086468,0.73468 z"
           style="font-style:normal;font-variant:normal;font-weight:normal;font-stretch:normal;font-size:10.58333302px;line-height:1.25;font-family:Loma;-inkscape-font-specification:Loma;letter-spacing:0px;word-spacing:0px;fill:#241c1c;fill-opacity:1;stroke:#ffd42a;stroke-width:0.08072208;stroke-miterlimit:4;stroke-dasharray:none;stroke-opacity:1"
           id="path858"
           inkscape:connector-curvature="0"
           sodipodi:nodetypes="csasascscccccccccccccsaaassssssssscc" />
        <path
           d="m 18.827364,153.16069 c -0.829019,0.32481 -2.245211,0.74997 -3.124724,0.69627 -0.622413,-0.038 -1.157913,-0.13132 -1.616299,-0.35265 -0.501372,-0.24208 -0.850773,-0.50913 -1.095386,-0.99679 -0.165633,-0.33021 -0.191634,-0.70844 -0.09671,-1.07414 0.09492,-0.3657 0.310769,-0.71887 0.628833,-0.99896 0.492896,-0.43405 1.33664,-0.70797 2.215631,-0.70797 0.379673,0 0.725524,0.0379 1.037586,0.11369 0.312075,0.0724 0.579915,0.16709 0.803568,0.28422 0.223641,0.11713 0.439478,0.24805 0.647513,0.39274 0.20284,0.14125 0.410885,0.28422 0.624137,0.42892 0.208034,0.14124 0.431675,0.27044 0.670912,0.38757 0.239247,0.11713 0.564461,0.25506 0.912943,0.33086 0.343252,0.0724 0.675892,0.0809 1.10765,0.0118 v 0.86106 c 0,0 -0.366429,0.0803 -0.553755,0.0864 -0.360513,0.0118 -0.75429,-0.0205 -1.076743,-0.0964 -0.322475,-0.0758 -0.595533,-0.17226 -0.819173,-0.28939 -0.228836,-0.12058 -0.444674,-0.24977 -0.647525,-0.38757 -0.20284,-0.14125 -0.395279,-0.2825 -0.577317,-0.42375 -0.187222,-0.14125 -0.374456,-0.26872 -0.5617,-0.3824 -0.192439,-0.11369 -0.408288,-0.20671 -0.647525,-0.27906 -0.244442,-0.0724 -0.505884,-0.11384 -0.764789,-0.13409 -0.262468,-0.0205 -0.403329,-0.0417 -0.602731,-0.0191 -0.237314,0.0269 -0.475866,0.0835 -0.687531,0.18183 -0.202631,0.0942 -0.397345,0.21885 -0.534872,0.38035 -0.148406,0.17428 -0.272108,0.38562 -0.285998,0.6032 -0.0141,0.22084 0.0737,0.45167 0.210527,0.63706 0.117768,0.15958 0.310449,0.26968 0.495218,0.36821 0.160709,0.0857 0.340365,0.14454 0.521714,0.18762 0.22896,0.0544 0.467472,0.0812 0.704508,0.0869 0.234955,0.006 0.473267,-0.007 0.702585,-0.0527 0.779432,-0.15451 1.381713,-0.29 2.245223,-0.73925 z"
           style="font-style:normal;font-variant:normal;font-weight:normal;font-stretch:normal;font-size:10.58333302px;line-height:1.25;font-family:Loma;-inkscape-font-specification:Loma;letter-spacing:0px;word-spacing:0px;opacity:1;fill:#241c1c;fill-opacity:1;stroke:#ffd42a;stroke-width:0.08072208;stroke-miterlimit:4;stroke-dasharray:none;stroke-opacity:1"
           id="path858-9"
           inkscape:connector-curvature="0"
           sodipodi:nodetypes="csasssscsccccccaccccccsaaaaaaaaacc" />
        <path
           id="path905"
           d="m 19.840231,151.47897 a 0.6113916,0.6453433 0 0 1 -0.611391,0.64535 0.6113916,0.6453433 0 0 1 -0.611392,-0.64535 0.6113916,0.6453433 0 0 1 0.611392,-0.64534 0.6113916,0.6453433 0 0 1 0.611391,0.64534 z"
           style="opacity:0.98999999;fill:#241c1c;fill-opacity:1;fill-rule:nonzero;stroke:#ffd42a;stroke-width:0.08073089;stroke-linejoin:bevel;stroke-miterlimit:4;stroke-dasharray:none;stroke-opacity:1"
           transform="matrix(1,0,0.02089228,0.99978173,0,0)" />
        <path
           id="path905-8"
           d="m 2.8523696,151.95816 a 0.6113916,0.6453433 0 0 1 -0.6113916,0.64534 0.6113916,0.6453433 0 0 1 -0.6113916,-0.64534 0.6113916,0.6453433 0 0 1 0.6113916,-0.64534 0.6113916,0.6453433 0 0 1 0.6113916,0.64534 z"
           style="opacity:0.98999999;fill:#241c1c;fill-opacity:1;fill-rule:nonzero;stroke:#ffd42a;stroke-width:0.08073089;stroke-linejoin:bevel;stroke-miterlimit:4;stroke-dasharray:none;stroke-opacity:1"
           transform="matrix(1,0,0.02089228,0.99978173,0,0)" />
      </g>
      <ellipse
         style="opacity:1;fill:#241c1c;fill-opacity:1;fill-rule:nonzero;stroke:#ffd42a;stroke-width:0.08072207;stroke-linejoin:bevel;stroke-miterlimit:4;stroke-dasharray:none;stroke-opacity:1"
         id="path857"
         cx="3.6652808"
         cy="144.02254"
         rx="1.8500175"
         ry="1.8248472" />
      <ellipse
         style="opacity:1;fill:#241c1c;fill-opacity:1;fill-rule:nonzero;stroke:#ffd42a;stroke-width:0.08072207;stroke-linejoin:bevel;stroke-miterlimit:4;stroke-dasharray:none;stroke-opacity:1"
         id="path859"
         cx="6.0816302"
         cy="144.38751"
         rx="1.9003582"
         ry="2.1394761"
         transform="matrix(0.03559619,0,0,0.03559619,0.43089645,133.25009)" />
    </g>
  </g>
</svg>
