<?xml version="1.0" encoding="UTF-8"?>
<!-- Created with Inkscape (http://www.inkscape.org/) -->
<svg width="135.39mm" height="31.225mm" version="1.1" viewBox="0 0 135.39 31.225" xmlns="http://www.w3.org/2000/svg" xmlns:cc="http://creativecommons.org/ns#" xmlns:dc="http://purl.org/dc/elements/1.1/" xmlns:rdf="http://www.w3.org/1999/02/22-rdf-syntax-ns#">
 <metadata>
  <rdf:RDF>
   <cc:Work rdf:about="">
    <dc:format>image/svg+xml</dc:format>
    <dc:type rdf:resource="http://purl.org/dc/dcmitype/StillImage"/>
    <dc:title/>
   </cc:Work>
  </rdf:RDF>
 </metadata>
 <g transform="translate(-23.647 -112.4)">
  <path transform="scale(.26458)" d="m396.75 425c-20.29 0-39.905 5.1989-53.939 13.816-1.4648-0.78251-2.9721-1.5511-4.541-2.3086-12.877-6.2178-27.921-8.8407-45.406-9.9082-24.708-1.5086-64.494 10.436-87.783 19.561l4.6152 25.158c31.825-16.557 67.229-22.678 86.707-20.639 12.065 1.2637 19.064 3.4615 27.139 7.0039-9.0817 14.314-11.017 31.42-3.9824 45.445 1.6523 3.2941 3.4791 6.2231 5.4902 8.877-0.44209 0.21766-0.88264 0.43938-1.3281 0.64648-5.9463 2.7624-12.648 4.3537-19.314 5.1094-5.6018 0.63493-9.5601 0.0388-16.934-0.5371-7.2734-0.5689-14.617-1.7337-21.484-3.7676-6.7208-2.0325-12.785-4.646-18.191-7.8398-5.2602-3.1936-10.52-6.7741-15.779-10.742-5.114-3.9681-10.52-7.9362-16.219-11.904-5.6987-3.8712-11.761-7.5012-18.189-10.889-6.2827-3.2905-13.954-5.9994-23.014-8.1289-9.0586-2.13-18.849-3.2878-29.369-3.4844l-16.436-0.28907v26.131c11.689 0 22.353 1.0149 31.996 3.0488 9.7899 2.1294 18.046 4.8384 24.768 8.1289 6.7208 3.2905 13.003 6.9208 18.848 10.889 5.9908 4.065 11.835 8.0807 17.533 12.049 5.8443 4.0648 11.909 7.7427 18.191 11.033 6.283 3.2905 13.807 5.9524 22.574 7.9863 8.7668 2.1292 18.482 3.1934 29.148 3.1934 20.29 0 39.907-5.1987 53.941-13.816 1.4644 0.7823 2.9706 1.5513 4.5391 2.3086 12.877 6.2178 27.921 8.8407 45.406 9.9082 24.708 1.5086 64.494-10.436 87.783-19.561l-4.6133-25.158c-24.259 12.621-41.18 16.427-63.076 20.768-6.4422 1.2839-13.136 1.649-19.736 1.4805-6.659-0.16011-13.361-0.91316-19.793-2.4414-4.3136-1.0247-8.5879-2.3719-12.539-4.2207 10.181-14.689 12.639-32.728 5.2812-47.396-1.6528-3.2949-3.4804-6.2245-5.4922-8.8789 0.44209-0.21767 0.88264-0.43939 1.3281-0.64649 5.9463-2.7624 12.648-4.3517 19.314-5.1074 5.6018-0.63489 9.5601-0.0388 16.934 0.53711 7.2734 0.56889 14.617 1.7317 21.484 3.7656 6.7209 2.0325 12.785 4.646 18.191 7.8398 5.2602 3.1936 10.52 6.776 15.779 10.744 5.114 3.9681 10.52 7.9362 16.219 11.904 5.6986 3.8712 11.763 7.4993 18.191 10.887 6.2827 3.2905 13.952 6.0014 23.012 8.1309 9.0587 2.1323 20.122 3.0385 30.25 2.707 5.2625-0.17136 15.557-2.4277 15.557-2.4277v-24.189c-12.129 1.9413-21.474 1.7039-31.117-0.33008-9.7898-2.1294-18.927-6.0044-25.648-9.2949-6.7209-3.2905-13.003-6.9208-18.848-10.889-5.9908-4.065-11.835-8.0807-17.533-12.049-5.8443-4.0647-11.909-7.7427-18.191-11.033-6.283-3.2905-13.807-5.9505-22.574-7.9844-8.7667-2.1292-18.482-3.1953-29.148-3.1953zm186.58 30.18a18.163 17.14 78.822 0 0-16.797 18.125 18.163 17.14 78.822 0 0 17.555 18.127 18.163 17.14 78.822 0 0 16.797-18.127 18.163 17.14 78.822 0 0-17.555-18.125zm-476.96 13.459a18.163 17.14 78.822 0 0-16.797 18.125 18.163 17.14 78.822 0 0 17.555 18.127 18.163 17.14 78.822 0 0 16.797-18.127 18.163 17.14 78.822 0 0-17.555-18.125zm237.71 5.7949c1.7368 3.3695 2.8104 6.9952 2.7012 10.588-0.0955 3.1668-1.1384 6.2786-2.6894 9.2266-1.6407-3.7312-2.5221-7.7375-2.2734-11.633 0.17834-2.7936 1.0228-5.5439 2.2617-8.1816z" fill="#fff" stroke="#241f1c" stroke-width=".37795"/>
 </g>
</svg>
