<?xml version="1.0" encoding="UTF-8" standalone="no"?>
<!-- Created with Inkscape (http://www.inkscape.org/) -->

<svg
   xmlns:dc="http://purl.org/dc/elements/1.1/"
   xmlns:cc="http://creativecommons.org/ns#"
   xmlns:rdf="http://www.w3.org/1999/02/22-rdf-syntax-ns#"
   xmlns:svg="http://www.w3.org/2000/svg"
   xmlns="http://www.w3.org/2000/svg"
   xmlns:sodipodi="http://sodipodi.sourceforge.net/DTD/sodipodi-0.dtd"
   xmlns:inkscape="http://www.inkscape.org/namespaces/inkscape"
   width="210mm"
   height="297mm"
   viewBox="0 0 210 297"
   version="1.1"
   id="svg8"
   sodipodi:docname="icono_blur.svg"
   inkscape:version="0.92.4 (unknown)">
  <defs
     id="defs2">
    <filter
       inkscape:collect="always"
       style="color-interpolation-filters:sRGB"
       id="filter859"
       x="-0.0073804197"
       width="1.0147608"
       y="-0.032079024"
       height="1.064158">
      <feGaussianBlur
         inkscape:collect="always"
         stdDeviation="1.5723891"
         id="feGaussianBlur861" />
    </filter>
  </defs>
  <sodipodi:namedview
     id="base"
     pagecolor="#ffffff"
     bordercolor="#666666"
     borderopacity="1.0"
     inkscape:pageopacity="0.0"
     inkscape:pageshadow="2"
     inkscape:zoom="1.5317947"
     inkscape:cx="377.62867"
     inkscape:cy="679.27742"
     inkscape:document-units="mm"
     inkscape:current-layer="layer1"
     showgrid="false"
     inkscape:window-width="1920"
     inkscape:window-height="1019"
     inkscape:window-x="0"
     inkscape:window-y="0"
     inkscape:window-maximized="1" />
  <metadata
     id="metadata5">
    <rdf:RDF>
      <cc:Work
         rdf:about="">
        <dc:format>image/svg+xml</dc:format>
        <dc:type
           rdf:resource="http://purl.org/dc/dcmitype/StillImage" />
        <dc:title></dc:title>
      </cc:Work>
    </rdf:RDF>
  </metadata>
  <g
     inkscape:label="Layer 1"
     inkscape:groupmode="layer"
     id="layer1">
    <path
       style="font-style:normal;font-variant:normal;font-weight:normal;font-stretch:normal;font-size:10.58333302px;line-height:1.25;font-family:Loma;-inkscape-font-specification:Loma;letter-spacing:0px;word-spacing:0px;fill:#ffffff;fill-opacity:1;stroke:#241f1c;stroke-width:0.37795276;stroke-miterlimit:4;stroke-dasharray:none;stroke-opacity:1;filter:url(#filter859)"
       d="M 396.74609 425.00391 C 376.45627 425.00391 356.84082 430.20278 342.80664 438.82031 C 341.34186 438.0378 339.83451 437.26923 338.26562 436.51172 C 325.38826 430.2939 310.34478 427.67104 292.85938 426.60352 C 268.15131 425.09492 228.3657 437.03922 205.07617 446.16406 L 209.69141 471.32227 C 241.51604 454.76514 276.92034 448.64405 296.39844 450.68359 C 308.46298 451.94725 315.46272 454.14508 323.53711 457.6875 C 314.45545 472.00134 312.51972 489.1079 319.55469 503.13281 C 321.20703 506.4269 323.03376 509.3559 325.04492 512.00977 C 324.60283 512.22743 324.16228 512.44915 323.7168 512.65625 C 317.77052 515.41863 311.06915 517.00995 304.40234 517.76562 C 298.80057 518.40055 294.84223 517.8044 287.46875 517.22852 C 280.19539 516.65962 272.85146 515.49485 265.98438 513.46094 C 259.26354 511.42842 253.19917 508.81498 247.79297 505.62109 C 242.53274 502.42751 237.27329 498.84703 232.01367 494.87891 C 226.89968 490.91082 221.49328 486.94274 215.79492 482.97461 C 210.09625 479.10339 204.03412 475.47341 197.60547 472.08594 C 191.32275 468.79544 183.65105 466.08649 174.5918 463.95703 C 165.53318 461.82704 155.74282 460.66919 145.22266 460.47266 L 128.78711 460.18359 L 128.78711 486.31445 C 140.47601 486.31445 151.14024 487.32933 160.7832 489.36328 C 170.57307 491.4927 178.82963 494.20166 185.55078 497.49219 C 192.27162 500.78268 198.55415 504.413 204.39844 508.38086 C 210.38929 512.44589 216.23328 516.46156 221.93164 520.42969 C 227.77593 524.49446 233.84031 528.1724 240.12305 531.46289 C 246.40608 534.75342 253.9302 537.41527 262.69727 539.44922 C 271.46402 541.57838 281.17962 542.64258 291.8457 542.64258 C 312.13572 542.64258 331.7529 537.44385 345.78711 528.82617 C 347.25152 529.60847 348.75771 530.37746 350.32617 531.13477 C 363.20356 537.35254 378.24704 539.97544 395.73242 541.04297 C 420.44052 542.55157 460.2261 530.6073 483.51562 521.48242 L 478.90234 496.32422 C 454.64382 508.94497 437.72264 512.75116 415.82617 517.0918 C 409.38397 518.37574 402.69041 518.74083 396.08984 518.57227 C 389.43085 518.41216 382.72903 517.65911 376.29688 516.13086 C 371.98332 515.10616 367.70897 513.75893 363.75781 511.91016 C 373.93859 497.22069 376.39687 479.1822 369.03906 464.51367 C 367.38631 461.21874 365.55864 458.28916 363.54688 455.63477 C 363.98897 455.4171 364.42952 455.19538 364.875 454.98828 C 370.82128 452.2259 377.5226 450.63658 384.18945 449.88086 C 389.7912 449.24597 393.74957 449.84208 401.12305 450.41797 C 408.39645 450.98686 415.74032 452.14968 422.60742 454.18359 C 429.32829 456.21611 435.39263 458.82955 440.79883 462.02344 C 446.05902 465.21702 451.31853 468.79945 456.57812 472.76758 C 461.69209 476.73567 467.09852 480.70375 472.79688 484.67188 C 478.49553 488.54309 484.55961 492.17115 490.98828 495.55859 C 497.27099 498.84913 504.94074 501.56003 514 503.68945 C 523.05866 505.82171 534.12215 506.72795 544.25 506.39648 C 549.5125 506.22512 559.80664 503.96875 559.80664 503.96875 L 559.80664 479.7793 C 547.67731 481.72058 538.33243 481.48317 528.68945 479.44922 C 518.89961 477.3198 509.76215 473.44483 503.04102 470.1543 C 496.32015 466.86376 490.03764 463.23345 484.19336 459.26562 C 478.20251 455.20059 472.35851 451.18492 466.66016 447.2168 C 460.81583 443.15207 454.75146 439.47413 448.46875 436.18359 C 442.1857 432.89306 434.66164 430.23313 425.89453 428.19922 C 417.1278 426.07006 407.41219 425.00391 396.74609 425.00391 z M 583.32227 455.18359 A 18.162986 17.140406 78.822355 0 0 566.52539 473.30859 A 18.162986 17.140406 78.822355 0 0 584.08008 491.43555 A 18.162986 17.140406 78.822355 0 0 600.87695 473.30859 A 18.162986 17.140406 78.822355 0 0 583.32227 455.18359 z M 106.36523 468.64258 A 18.162986 17.140406 78.822355 0 0 89.568359 486.76758 A 18.162986 17.140406 78.822355 0 0 107.12305 504.89453 A 18.162986 17.140406 78.822355 0 0 123.91992 486.76758 A 18.162986 17.140406 78.822355 0 0 106.36523 468.64258 z M 344.07617 474.4375 C 345.81292 477.80704 346.88656 481.43269 346.77734 485.02539 C 346.68184 488.19218 345.6389 491.30397 344.08789 494.25195 C 342.44722 490.52079 341.56575 486.51445 341.81445 482.61914 C 341.99279 479.82553 342.8373 477.07522 344.07617 474.4375 z "
       transform="scale(0.26458333)"
       id="path858" />
  </g>
</svg>
