<?xml version="1.0" encoding="UTF-8"?>
<!-- Created with Inkscape (http://www.inkscape.org/) -->
<svg width="30.313mm" height="12.992mm" version="1.1" viewBox="0 0 30.313 12.992" xmlns="http://www.w3.org/2000/svg" xmlns:cc="http://creativecommons.org/ns#" xmlns:dc="http://purl.org/dc/elements/1.1/" xmlns:rdf="http://www.w3.org/1999/02/22-rdf-syntax-ns#">
 <metadata>
  <rdf:RDF>
   <cc:Work rdf:about="">
    <dc:format>image/svg+xml</dc:format>
    <dc:type rdf:resource="http://purl.org/dc/dcmitype/StillImage"/>
    <dc:title/>
   </cc:Work>
  </rdf:RDF>
 </metadata>
 <g transform="translate(-41.925 -97.417)">
  <g stroke="#fff" stroke-width=".114" aria-label="YAMM ">
   <path d="m51.188 97.721c-0.18891-0.22112-0.28966-0.27215-0.50376-0.27215-1.0075 0-1.7758 1.3607-3.4382 6.0384 0.11335-0.90151 0.13854-1.3097 0.13854-1.871 0-2.2282-0.66749-3.623-1.738-3.623-1.5113 0-3.2115 2.1432-3.2115 4.0823 0 0.51028 0.08815 1.0206 0.26448 1.5479l0.95715-0.81645c-0.18891-0.79945-0.25188-1.2077-0.25188-1.718 0-1.1907 0.60452-2.1262 1.3728-2.1262 1.1209 0 1.8135 1.718 1.8135 4.4905 0 0.86748-0.07557 1.5308-0.23929 2.1602-0.23929 0.86748-0.52895 1.6499-0.86899 2.2963-0.46598 0.88449-1.0705 1.2417-2.1536 1.2417-0.18891 0-0.37782-0.017-0.91937-0.068l-0.44079 1.2587c0.25188 0.0341 0.36523 0.0341 0.57933 0.0341 1.1461 0 1.7128-0.15301 2.2417-0.62935 0.61711-0.54431 1.2972-1.9731 2.5566-5.392 1.3098-3.555 1.4609-3.9462 1.801-4.6096 0.37782-0.7144 0.66748-0.98656 1.0579-0.98656 0.2015 0 0.34004 0.05111 0.6297 0.20411z"/>
   <path d="m53.314 108.32c-1.1959 0.14817-1.3441 0.0317-1.3441-0.47625 0-0.29633 0.508-4.4027 0.65617-5.2282l-0.13758-0.10584c-0.14817 0.14817-0.29633 0.32809-0.52917 0.32809-0.23283 0-1.3018-0.14817-1.5346-0.14817-0.635 0-0.98425 0.24342-1.5134 0.73025-0.45508 0.42333-0.79375 0.89958-0.79375 1.4393 0 0.3175 0.05292 0.61384 0.13758 0.889l0.77258-0.45508c-0.09525-0.28575-0.22225-0.70908-0.22225-1.0372 0-0.52916 0.48683-0.93133 1.1536-0.93133 0.23283 0 1.3758 0.13758 1.5663 0.13758l-2.9739 3.8523c-0.381 0.47625-0.80433 0.71966-1.397 0.71966-0.08467 0-0.39158-0.0318-0.47625-0.0423l-0.39158 0.73025c0.21167 0.0529 0.40217 0.0741 0.5715 0.0741 0.5715 0 0.96308-0.27516 1.4393-0.71966 0.14817-0.13759 0.85725-0.94192 1.1218-1.27 0.41275 0 1.5134 0.0106 1.8521 0.0529-0.09525 0.65617-0.17992 1.2488-0.23283 1.8203-0.01058 0.127 0.11642 0.21166 0.254 0.21166 0.17992 0 1.3864-0.29633 1.8521-0.33866zm-1.9791-1.8944h-1.6404l2.0426-2.7411z"/>
   <path d="m61.846 108.34c-0.17992 0.0106-0.34925 0.0212-0.40217 0.0318-0.17992 0.0106-0.34925 0.0212-0.43392 0.0212-0.33867 0-0.52917-0.15875-0.52917-0.42334 0-0.27516 0.01058-0.33866 0.28575-1.4605l0.68792-2.6882c0.42333-1.4711 0.47625-1.5875 0.75142-1.5875 0.09525 0 0.23283 0.0106 0.37042 0.0423 0.03175 0.0106 0.15875 0.0318 0.28575 0.0529l0.43392-0.59267c-0.1905-0.0529-0.29633-0.0635-0.42333-0.0635-0.27517 0-0.508 0.0847-0.889 0.30692-0.59267 0.33866-0.6985 0.43391-1.0795 0.97366l-1.4288 1.9897-1.1959 1.7357-0.26458 0.381c-0.13758-1.6087-0.41275-3.9476-0.55033-4.6884l-0.32808 0.26458c-0.40217-0.0529-0.60325-0.0635-0.85725-0.0635-0.70908 0-1.1324 0.17992-1.6298 0.6985-0.5715 0.5715-0.91017 1.2488-0.91017 1.7886 0 0.30691 0.0635 0.58208 0.24342 0.97366l0.80433-0.56091c-0.254-0.55034-0.33867-0.81492-0.33867-1.1218 0-0.68791 0.51858-1.0689 1.4393-1.0689 0.24342 0 0.41275 0.0106 0.762 0.0635-0.46567 1.8944-1.0372 3.8735-1.2277 4.2122-0.20108 0.37042-0.46567 0.52917-0.92075 0.52917-0.17992 0-0.17992 0-0.78317-0.0529l-0.48683 0.73025c0.1905 0.0106 0.34925 0.0106 0.45508 0.0106 0.8255 0 1.3758-0.24342 1.8309-0.80434 0.33867-0.43391 0.46567-0.6985 0.71967-1.5663l0.68792-2.5929c0.37042 3.8206 0.381 3.9052 0.40217 4.7519l0.51858-0.40217c0.37042-0.79375 1.0795-1.8944 2.8257-4.3815l-0.10583 0.46567c-0.03175 0.15875-0.11642 0.47625-0.24342 0.94192l-0.762 2.8258c-0.08467 0.24341-0.13758 0.46566-0.13758 0.61383s0.11642 0.27517 0.254 0.27517c0.05292 0 0.11642-0.0106 0.20108-0.0212l0.99483-0.16933 0.49742-0.0635c0.03175-0.0106 0.11642-0.0212 0.254-0.0423z"/>
   <path d="m70.734 108.34c-0.17992 0.0106-0.34925 0.0212-0.40217 0.0318-0.17992 0.0106-0.34925 0.0212-0.43392 0.0212-0.33867 0-0.52917-0.15875-0.52917-0.42334 0-0.27516 0.01058-0.33866 0.28575-1.4605l0.68792-2.6882c0.42333-1.4711 0.47625-1.5875 0.75142-1.5875 0.09525 0 0.23283 0.0106 0.37042 0.0423 0.03175 0.0106 0.15875 0.0318 0.28575 0.0529l0.43392-0.59267c-0.1905-0.0529-0.29633-0.0635-0.42333-0.0635-0.27517 0-0.508 0.0847-0.889 0.30692-0.59267 0.33866-0.6985 0.43391-1.0795 0.97366l-1.4287 1.9897-1.1959 1.7357-0.26458 0.381c-0.13758-1.6087-0.41275-3.9476-0.55033-4.6884l-0.32808 0.26458c-0.40217-0.0529-0.60325-0.0635-0.85725-0.0635-0.70908 0-1.1324 0.17992-1.6298 0.6985-0.5715 0.5715-0.91017 1.2488-0.91017 1.7886 0 0.30691 0.0635 0.58208 0.24342 0.97366l0.80433-0.56091c-0.254-0.55034-0.33867-0.81492-0.33867-1.1218 0-0.68791 0.51858-1.0689 1.4393-1.0689 0.24342 0 0.41275 0.0106 0.762 0.0635-0.46567 1.8944-1.0372 3.8735-1.2277 4.2122-0.20108 0.37042-0.46567 0.52917-0.92075 0.52917-0.17992 0-0.17992 0-0.78317-0.0529l-0.48683 0.73025c0.1905 0.0106 0.34925 0.0106 0.45508 0.0106 0.8255 0 1.3758-0.24342 1.8309-0.80434 0.33867-0.43391 0.46567-0.6985 0.71967-1.5663l0.68792-2.5929c0.37042 3.8206 0.381 3.9052 0.40217 4.7519l0.51858-0.40217c0.37042-0.79375 1.0795-1.8944 2.8258-4.3815l-0.10583 0.46567c-0.03175 0.15875-0.11642 0.47625-0.24342 0.94192l-0.762 2.8258c-0.08467 0.24341-0.13758 0.46566-0.13758 0.61383s0.11642 0.27517 0.254 0.27517c0.05292 0 0.11642-0.0106 0.20108-0.0212l0.99483-0.16933 0.49742-0.0635c0.03175-0.0106 0.11642-0.0212 0.254-0.0423z"/>
  </g>
 </g>
</svg>
